<svg width="81" height="83" viewBox="0 0 81 83" fill="none" xmlns="http://www.w3.org/2000/svg">
<path d="M34.0376 27.6152C45.5543 -4.53751 62.3986 17.4536 66.5384 25.0544C84.1871 57.4576 45.2547 77.7277 26.898 70.6169C-5.88588 61.3894 7.66789 29.079 23.1572 32.2383C29.8541 34.3275 33.2012 30.0267 34.0376 27.6152Z" fill="#EBFEEF"/>
<g filter="url(#filter0_d_729_7029)">
<path d="M21.1251 34.4625C21.1541 34.2875 21.1648 34.1138 21.1847 33.9374C21.3356 32.603 22.549 29.6191 25.7517 29.6191H50.5012C52.079 29.6191 54.2711 31.6714 55.4307 34.2026L58.4358 39.0511C58.7907 39.6237 59.3536 40.0312 59.8533 40.483C60.8707 41.4029 61.2734 42.9823 61.2734 44.5153V51.3905C61.2734 52.6061 60.7905 53.7719 59.931 54.6315C59.0714 55.4911 57.9056 55.974 56.69 55.974H24.6059C23.3903 55.974 22.2245 55.4911 21.3649 54.6315C20.5053 53.7719 20.0224 52.6061 20.0224 51.3905V42.2236C20.0224 41.1842 20.9164 35.7235 21.1251 34.4625Z" fill="white"/>
</g>
<path d="M50.961 49.1016C52.756 49.1023 54.4795 49.8054 55.7628 51.0604C57.0461 52.3155 57.7874 54.0229 57.8281 55.8175C57.4614 55.9103 57.0856 55.9767 56.6903 55.9767H44.0858C44.0858 54.1533 44.8102 52.4046 46.0995 51.1153C47.3888 49.8259 49.1376 49.1016 50.961 49.1016ZM23.4683 55.8163C23.509 54.0219 24.2504 52.3146 25.5337 51.0597C26.8171 49.8048 28.5406 49.102 30.3355 49.1016C34.1306 49.1016 37.2106 52.1805 37.2106 55.9767H24.6062C24.2108 55.9767 23.8339 55.9103 23.4683 55.8163Z" fill="#13B859"/>
<path d="M50.9556 60.5575C48.4242 60.5575 46.3722 58.5054 46.3722 55.9741C46.3722 53.4427 48.4242 51.3906 50.9556 51.3906C53.487 51.3906 55.5391 53.4427 55.5391 55.9741C55.5391 58.5054 53.487 60.5575 50.9556 60.5575Z" fill="#10345E"/>
<path d="M50.9583 58.2651C49.6926 58.2651 48.6666 57.239 48.6666 55.9734C48.6666 54.7077 49.6926 53.6816 50.9583 53.6816C52.224 53.6816 53.25 54.7077 53.25 55.9734C53.25 57.239 52.224 58.2651 50.9583 58.2651Z" fill="#13B859"/>
<path d="M30.3306 60.5575C27.7992 60.5575 25.7472 58.5054 25.7472 55.9741C25.7472 53.4427 27.7992 51.3906 30.3306 51.3906C32.862 51.3906 34.9141 53.4427 34.9141 55.9741C34.9141 58.5054 32.862 60.5575 30.3306 60.5575Z" fill="#10345E"/>
<path d="M30.3333 58.2651C29.0676 58.2651 28.0416 57.239 28.0416 55.9734C28.0416 54.7077 29.0676 53.6816 30.3333 53.6816C31.599 53.6816 32.625 54.7077 32.625 55.9734C32.625 57.239 31.599 58.2651 30.3333 58.2651Z" fill="#13B859"/>
<path d="M61.2734 44.5166H20.0224V47.9542H61.2734V44.5166ZM25.7517 35.3497H29.1893V31.9121H31.481V35.3497H34.9186V37.6414H31.481V41.079H29.1893V37.6414H25.7517V35.3497Z" fill="#DC4437"/>
<path d="M52.1041 31.9121H46.3747V39.9331H56.6875L52.1041 31.9121Z" fill="#13B859"/>
<path d="M44.0832 27.9004C44.0832 28.3563 44.2643 28.7935 44.5866 29.1158C44.909 29.4381 45.3461 29.6192 45.802 29.6192H48.0937C48.5496 29.6192 48.9867 29.4381 49.3091 29.1158C49.6314 28.7935 49.8125 28.3563 49.8125 27.9004C49.8125 27.4446 49.6314 27.0074 49.3091 26.6851C48.9867 26.3627 48.5496 26.1816 48.0937 26.1816H45.802C45.3461 26.1816 44.909 26.3627 44.5866 26.6851C44.2643 27.0074 44.0832 27.4446 44.0832 27.9004Z" fill="#DC4437"/>
<path d="M40.6457 27.9004C40.6457 28.3563 40.8268 28.7935 41.1491 29.1158C41.4715 29.4381 41.9086 29.6192 42.3645 29.6192H44.6562C45.1121 29.6192 45.5492 29.4381 45.8716 29.1158C46.1939 28.7935 46.375 28.3563 46.375 27.9004C46.375 27.4446 46.1939 27.0074 45.8716 26.6851C45.5492 26.3627 45.1121 26.1816 44.6562 26.1816H42.3645C41.9086 26.1816 41.4715 26.3627 41.1491 26.6851C40.8268 27.0074 40.6457 27.4446 40.6457 27.9004Z" fill="#13B859"/>
<defs>
<filter id="filter0_d_729_7029" x="16.8157" y="29.6191" width="47.6655" height="32.7704" filterUnits="userSpaceOnUse" color-interpolation-filters="sRGB">
<feFlood flood-opacity="0" result="BackgroundImageFix"/>
<feColorMatrix in="SourceAlpha" type="matrix" values="0 0 0 0 0 0 0 0 0 0 0 0 0 0 0 0 0 0 127 0" result="hardAlpha"/>
<feOffset dy="3.20777"/>
<feGaussianBlur stdDeviation="1.60389"/>
<feColorMatrix type="matrix" values="0 0 0 0 0 0 0 0 0 0 0 0 0 0 0 0 0 0 0.08 0"/>
<feBlend mode="normal" in2="BackgroundImageFix" result="effect1_dropShadow_729_7029"/>
<feBlend mode="normal" in="SourceGraphic" in2="effect1_dropShadow_729_7029" result="shape"/>
</filter>
</defs>
</svg>
