<svg width="89" height="90" viewBox="0 0 89 90" fill="none" xmlns="http://www.w3.org/2000/svg">
<path d="M44.588 29.8239C21.0647 5.06334 14.5391 31.9846 13.8224 40.6099C10.7668 77.381 54.5696 80.1971 68.4896 66.2771C94.7523 44.593 69.3018 20.511 56.4087 29.658C51.1263 34.2743 46.3272 31.6921 44.588 29.8239Z" fill="#EBFEEF"/>
<path d="M32.3906 34.4825H49.8775V38.8543C49.8775 41.1732 48.9563 43.3971 47.3166 45.0368C45.6769 46.6765 43.4529 47.5977 41.134 47.5977C38.8151 47.5977 36.5912 46.6765 34.9515 45.0368C33.3118 43.3971 32.3906 41.1732 32.3906 38.8543V34.4825Z" fill="#13B859"/>
<path d="M58.6221 58.9192C58.6221 55.1814 53.9444 51.9901 47.3431 50.7441L41.1353 61.1051L34.9274 50.7441C28.3262 51.9901 23.6484 55.1814 23.6484 58.9192V63.2909H58.6221V58.9192Z" fill="white"/>
<path d="M33.2868 23.3345L32.3906 32.2965H49.8775L48.9813 23.3345C48.872 22.2197 47.9321 21.3672 46.8173 21.3672H35.4727C34.9289 21.3645 34.4037 21.5645 33.9995 21.9283C33.5953 22.2921 33.3412 22.7934 33.2868 23.3345Z" fill="#13B859"/>
<g filter="url(#filter0_d_729_7016)">
<circle cx="55.9364" cy="45.5789" r="8.96761" fill="white"/>
</g>
<path d="M38.9515 23.5527H41.1373V25.7386H43.3232V27.9244H41.1373V30.1103H38.9515V27.9244H36.7656V25.7386H38.9515V23.5527Z" fill="white"/>
<path d="M33.7762 57.1448C32.7989 57.1448 31.8616 56.7566 31.1705 56.0655C30.4794 55.3744 30.0912 54.4371 30.0912 53.4598V50.5118C30.0912 50.3163 30.1688 50.1289 30.3071 49.9907C30.4453 49.8524 30.6327 49.7748 30.8282 49.7748H31.5652C31.7607 49.7748 31.9481 49.6971 32.0864 49.5589C32.2246 49.4207 32.3022 49.2333 32.3022 49.0378C32.3022 48.8423 32.2246 48.6549 32.0864 48.5166C31.9481 48.3784 31.7607 48.3008 31.5652 48.3008H30.8282C30.2418 48.3008 29.6794 48.5337 29.2648 48.9484C28.8501 49.363 28.6172 49.9254 28.6172 50.5118V53.4598C28.6181 54.2924 28.8212 55.1124 29.2089 55.8492C29.5965 56.5861 30.1573 57.2179 30.8429 57.6902C31.5017 58.271 32.0359 58.9793 32.4134 59.7722C32.7909 60.5652 33.0038 61.4264 33.0392 62.3039C33.0392 63.6721 33.5828 64.9844 34.5503 65.9519C35.5178 66.9194 36.83 67.4629 38.1983 67.4629C39.5665 67.4629 40.8787 66.9194 41.8462 65.9519C42.8138 64.9844 43.3573 63.6721 43.3573 62.3039V61.4637C44.052 61.2843 44.6575 60.8577 45.0602 60.2638C45.4629 59.67 45.6352 58.9496 45.5448 58.2378C45.4544 57.526 45.1075 56.8716 44.5691 56.3973C44.0307 55.923 43.3378 55.6613 42.6203 55.6613C41.9028 55.6613 41.2099 55.923 40.6715 56.3973C40.1331 56.8716 39.7862 57.526 39.6958 58.2378C39.6054 58.9496 39.7776 59.67 40.1804 60.2638C40.5831 60.8577 41.1885 61.2843 41.8833 61.4637V62.3039C41.8833 63.2812 41.495 64.2185 40.804 64.9096C40.1129 65.6007 39.1756 65.9889 38.1983 65.9889C37.2209 65.9889 36.2836 65.6007 35.5925 64.9096C34.9015 64.2185 34.5132 63.2812 34.5132 62.3039C34.5505 61.4253 34.7657 60.5634 35.1458 59.7704C35.5258 58.9774 36.0628 58.2697 36.7242 57.6902C37.4072 57.2162 37.9651 56.5838 38.3501 55.847C38.7352 55.1102 38.936 54.2911 38.9353 53.4598V50.5118C38.9353 49.9254 38.7023 49.363 38.2877 48.9484C37.873 48.5337 37.3106 48.3008 36.7242 48.3008H35.9872C35.7918 48.3008 35.6043 48.3784 35.4661 48.5166C35.3279 48.6549 35.2502 48.8423 35.2502 49.0378C35.2502 49.2333 35.3279 49.4207 35.4661 49.5589C35.6043 49.6971 35.7918 49.7748 35.9872 49.7748H36.7242C36.9197 49.7748 37.1072 49.8524 37.2454 49.9907C37.3836 50.1289 37.4613 50.3163 37.4613 50.5118V53.4598C37.4613 53.9437 37.3659 54.4229 37.1807 54.87C36.9956 55.3171 36.7241 55.7233 36.3819 56.0655C36.0397 56.4077 35.6335 56.6791 35.1864 56.8643C34.7393 57.0495 34.2601 57.1448 33.7762 57.1448ZM42.6203 60.0929C42.2294 60.0929 41.8544 59.9376 41.578 59.6611C41.3016 59.3847 41.1463 59.0098 41.1463 58.6189C41.1463 58.2279 41.3016 57.853 41.578 57.5766C41.8544 57.3001 42.2294 57.1448 42.6203 57.1448C43.0112 57.1448 43.3861 57.3001 43.6626 57.5766C43.939 57.853 44.0943 58.2279 44.0943 58.6189C44.0943 59.0098 43.939 59.3847 43.6626 59.6611C43.3861 59.9376 43.0112 60.0929 42.6203 60.0929Z" fill="#13B859"/>
<path d="M58.6211 41.3949H57.1265C57.1265 40.7354 56.5903 40.1992 55.9308 40.1992C55.2713 40.1992 54.7351 40.7354 54.7351 41.3949H53.2405C52.7454 41.3949 52.3438 41.7966 52.3438 42.2917V48.8679C52.3438 49.363 52.7454 49.7647 53.2405 49.7647H58.6211C59.1162 49.7647 59.5178 49.363 59.5178 48.8679V42.2917C59.5178 41.7966 59.1162 41.3949 58.6211 41.3949ZM55.9308 40.9465C56.1793 40.9465 56.3792 41.1464 56.3792 41.3949C56.3792 41.6434 56.1793 41.8433 55.9308 41.8433C55.6823 41.8433 55.4824 41.6434 55.4824 41.3949C55.4824 41.1464 55.6823 40.9465 55.9308 40.9465ZM57.7243 46.626C57.7243 46.7082 57.6571 46.7755 57.5749 46.7755H56.5286V47.8217C56.5286 47.9039 56.4614 47.9711 56.3792 47.9711H55.4824C55.4002 47.9711 55.333 47.9039 55.333 47.8217V46.7755H54.2867C54.2045 46.7755 54.1373 46.7082 54.1373 46.626V45.7292C54.1373 45.647 54.2045 45.5798 54.2867 45.5798H55.333V44.5336C55.333 44.4514 55.4002 44.3841 55.4824 44.3841H56.3792C56.4614 44.3841 56.5286 44.4514 56.5286 44.5336V45.5798H57.5749C57.6571 45.5798 57.7243 45.647 57.7243 45.7292V46.626ZM57.7243 43.039C57.7243 43.1212 57.6571 43.1884 57.5749 43.1884H54.2867C54.2045 43.1884 54.1373 43.1212 54.1373 43.039V42.74C54.1373 42.6578 54.2045 42.5906 54.2867 42.5906H57.5749C57.6571 42.5906 57.7243 42.6578 57.7243 42.74V43.039Z" fill="#DC4437"/>
<defs>
<filter id="filter0_d_729_7016" x="44.1794" y="36.6113" width="23.5162" height="23.5139" filterUnits="userSpaceOnUse" color-interpolation-filters="sRGB">
<feFlood flood-opacity="0" result="BackgroundImageFix"/>
<feColorMatrix in="SourceAlpha" type="matrix" values="0 0 0 0 0 0 0 0 0 0 0 0 0 0 0 0 0 0 127 0" result="hardAlpha"/>
<feOffset dy="2.78937"/>
<feGaussianBlur stdDeviation="1.39468"/>
<feColorMatrix type="matrix" values="0 0 0 0 0 0 0 0 0 0 0 0 0 0 0 0 0 0 0.08 0"/>
<feBlend mode="normal" in2="BackgroundImageFix" result="effect1_dropShadow_729_7016"/>
<feBlend mode="normal" in="SourceGraphic" in2="effect1_dropShadow_729_7016" result="shape"/>
</filter>
</defs>
</svg>
