<svg width="87" height="89" viewBox="0 0 87 89" fill="none" xmlns="http://www.w3.org/2000/svg">
<path d="M46.3456 59.609C26.8735 87.6673 16.3187 62.0562 14.295 53.641C5.66745 17.766 48.5284 8.30285 64.4084 19.9372C93.6708 37.3625 72.1906 65.0441 58.0533 57.9703C52.1288 54.2136 47.7796 57.4975 46.3456 59.609Z" fill="#EBFEEF"/>
<rect x="29.9062" y="35.8203" width="26.9028" height="27.7996" rx="7.17409" fill="white"/>
<path d="M59.496 55.5488V32.233C59.496 31.112 58.8234 30.4395 57.7025 30.4395H34.8351C31.0238 30.4395 28.1094 33.3539 28.1094 37.1652V59.5842C28.1094 63.3954 31.0238 66.3099 34.8351 66.3099H57.7025C58.5993 66.3099 59.496 65.6373 59.496 64.5164V63.3954C59.496 62.947 59.2718 62.4987 58.8234 62.0503C58.5993 60.9293 58.5993 57.7907 58.8234 56.8939C59.2718 56.6697 59.496 56.2213 59.496 55.5488ZM38.1979 42.2094C38.1979 42.0608 38.257 41.9182 38.3621 41.8131C38.4672 41.708 38.6098 41.649 38.7584 41.649H42.6817V37.7256C42.6817 37.577 42.7408 37.4344 42.8459 37.3293C42.951 37.2242 43.0936 37.1652 43.2422 37.1652H46.6051C46.7537 37.1652 46.8963 37.2242 47.0014 37.3293C47.1065 37.4344 47.1655 37.577 47.1655 37.7256V41.649H51.0889C51.2375 41.649 51.3801 41.708 51.4852 41.8131C51.5903 41.9182 51.6494 42.0608 51.6494 42.2094V45.5723C51.6494 45.7209 51.5903 45.8635 51.4852 45.9686C51.3801 46.0737 51.2375 46.1328 51.0889 46.1328H47.1655V50.0561C47.1655 50.2048 47.1065 50.3473 47.0014 50.4524C46.8963 50.5575 46.7537 50.6166 46.6051 50.6166H43.2422C43.0936 50.6166 42.951 50.5575 42.8459 50.4524C42.7408 50.3473 42.6817 50.2048 42.6817 50.0561V46.1328H38.7584C38.6098 46.1328 38.4672 46.0737 38.3621 45.9686C38.257 45.8635 38.1979 45.7209 38.1979 45.5723V42.2094ZM54.788 61.8261H34.8351C33.4899 61.8261 32.5932 60.9293 32.5932 59.5842C32.5932 58.239 33.7141 57.3423 34.8351 57.3423H54.788V61.8261Z" fill="#DC4437"/>
<rect x="34.3906" y="29.543" width="26.9028" height="27.7996" rx="7.17409" fill="white"/>
<path d="M63.9804 49.2714V25.9556C63.9804 24.8347 63.3078 24.1621 62.1869 24.1621H39.3195C35.5082 24.1621 32.5938 27.0766 32.5938 30.8878V53.3068C32.5938 57.1181 35.5082 60.0326 39.3195 60.0326H62.1869C63.0836 60.0326 63.9804 59.36 63.9804 58.239V57.1181C63.9804 56.6697 63.7562 56.2213 63.3078 55.7729C63.0836 54.652 63.0836 51.5133 63.3078 50.6166C63.7562 50.3924 63.9804 49.944 63.9804 49.2714ZM42.6823 35.9321C42.6823 35.7835 42.7414 35.6409 42.8465 35.5358C42.9516 35.4307 43.0941 35.3716 43.2428 35.3716H47.1661V31.4483C47.1661 31.2996 47.2252 31.1571 47.3303 31.052C47.4354 30.9469 47.5779 30.8878 47.7266 30.8878H51.0894C51.2381 30.8878 51.3807 30.9469 51.4858 31.052C51.5909 31.1571 51.6499 31.2996 51.6499 31.4483V35.3716H55.5733C55.7219 35.3716 55.8645 35.4307 55.9696 35.5358C56.0747 35.6409 56.1337 35.7835 56.1337 35.9321V39.295C56.1337 39.4436 56.0747 39.5862 55.9696 39.6913C55.8645 39.7964 55.7219 39.8554 55.5733 39.8554H51.6499V43.7788C51.6499 43.9274 51.5909 44.07 51.4858 44.1751C51.3807 44.2802 51.2381 44.3392 51.0894 44.3392H47.7266C47.5779 44.3392 47.4354 44.2802 47.3303 44.1751C47.2252 44.07 47.1661 43.9274 47.1661 43.7788V39.8554H43.2428C43.0941 39.8554 42.9516 39.7964 42.8465 39.6913C42.7414 39.5862 42.6823 39.4436 42.6823 39.295V35.9321ZM59.2724 55.5487H39.3195C37.9743 55.5487 37.0776 54.652 37.0776 53.3068C37.0776 51.9617 38.1985 51.0649 39.3195 51.0649H59.2724V55.5487Z" fill="#13B859"/>
</svg>
