<svg width="22" height="21" viewBox="0 0 22 21" fill="none" xmlns="http://www.w3.org/2000/svg">
<path d="M7.15113 8.85012L9.72165 10.6866C10.4864 11.233 11.5136 11.233 12.2783 10.6866L14.8489 8.85012M1.88539 13.6513C1.37154 11.5819 1.37154 9.41815 1.88539 7.34875C2.55805 4.63983 4.70602 2.54534 7.43056 1.94162L7.88443 1.84105C9.9366 1.38632 12.0634 1.38632 14.1156 1.84105L14.5694 1.94162C17.294 2.54534 19.442 4.63984 20.1146 7.34875C20.6285 9.41815 20.6285 11.5819 20.1146 13.6512C19.442 16.3602 17.294 18.4547 14.5694 19.0584L14.1156 19.159C12.0634 19.6137 9.9366 19.6137 7.88443 19.159L7.43056 19.0584C4.70601 18.4547 2.55805 16.3602 1.88539 13.6513Z" stroke="#363853" stroke-width="1.5" stroke-linecap="round"/>
</svg>
