<svg width="74" height="61" viewBox="0 0 74 61" fill="none" xmlns="http://www.w3.org/2000/svg">
<path d="M30.8003 19.1582C-3.34155 18.2833 11.0803 41.9338 16.6726 48.5396C40.513 76.7013 73.4776 47.7194 73.4776 28.0336C76.7151 -5.86993 41.6904 -4.90232 39.0414 10.6824C38.5705 17.6818 33.3511 19.2494 30.8003 19.1582Z" fill="#EBFEEF"/>
<g filter="url(#filter0_d_729_6997)">
<rect x="3.74219" y="35.3612" width="62.0634" height="13.9468" rx="2.78937" fill="white"/>
</g>
<path d="M47.5927 20.5464C47.5927 21.0432 47.3953 21.5196 47.0441 21.8708C46.6928 22.222 46.2164 22.4194 45.7197 22.4194H38.2279C37.7311 22.4194 37.2547 22.222 36.9035 21.8708C36.5523 21.5196 36.3549 21.0432 36.3549 20.5464V13.0546C36.3549 12.5579 36.5523 12.0815 36.9035 11.7302C37.2547 11.379 37.7311 11.1816 38.2279 11.1816H45.7197C46.2164 11.1816 46.6928 11.379 47.0441 11.7302C47.3953 12.0815 47.5927 12.5579 47.5927 13.0546V20.5464ZM25.1172 24.2923V43.0219C25.1172 43.5186 25.3145 43.995 25.6658 44.3463C26.017 44.6975 26.4934 44.8948 26.9901 44.8948H56.9574C57.4542 44.8948 57.9306 44.6975 58.2818 44.3463C58.6331 43.995 58.8304 43.5186 58.8304 43.0219V24.2923H25.1172Z" fill="#13B859"/>
<path d="M41.9738 22.418H26.9901C26.4934 22.418 26.017 22.6153 25.6658 22.9665C25.3145 23.3178 25.1172 23.7942 25.1172 24.2909H43.8467C43.8467 23.7942 43.6494 23.3178 43.2982 22.9665C42.9469 22.6153 42.4705 22.418 41.9738 22.418Z" fill="#13B859"/>
<path d="M56.9582 22.418H41.9745C41.4778 22.418 41.0014 22.6153 40.6501 22.9665C40.2989 23.3178 40.1016 23.7942 40.1016 24.2909H58.8311C58.8311 23.7942 58.6338 23.3178 58.2825 22.9665C57.9313 22.6153 57.4549 22.418 56.9582 22.418Z" fill="#13B859"/>
<path d="M26.9922 31.7849H56.9595V35.5308H26.9922V31.7849ZM26.9922 26.166H56.9595V29.9119H26.9922V26.166ZM26.9922 37.4037H56.9595V41.1497H26.9922V37.4037Z" fill="#13B859"/>
<path d="M32.6094 22.418H51.3389V44.8934H32.6094V22.418Z" fill="#F3F5F6"/>
<path d="M34.4844 29.9118H49.468V33.6577H34.4844V29.9118ZM34.4844 24.293H49.468V28.0389H34.4844V24.293ZM34.4844 35.5307H49.468V39.2766H34.4844V35.5307Z" fill="#13B859"/>
<path d="M37.2891 41.1504H46.6538V44.8963H37.2891V41.1504Z" fill="#13B859"/>
<path d="M45.7184 14.9286H42.909V12.1191H41.036V14.9286H38.2266V16.8015H41.036V19.611H42.909V16.8015H45.7184V14.9286Z" fill="#DC4437"/>
<path d="M49.466 20.5469H34.4823C33.9856 20.5469 33.5092 20.7442 33.158 21.0955C32.8067 21.4467 32.6094 21.9231 32.6094 22.4198H51.3389C51.3389 21.9231 51.1416 21.4467 50.7904 21.0955C50.4391 20.7442 49.9627 20.5469 49.466 20.5469Z" fill="#13B859"/>
<path d="M14.2822 45.4228L12.1751 43.3157L14.2822 45.4228ZM12.8774 41.5598C12.8774 41.8826 12.8139 42.2023 12.6903 42.5006C12.5668 42.7988 12.3857 43.0698 12.1574 43.2981C11.9292 43.5263 11.6582 43.7074 11.3599 43.8309C11.0617 43.9545 10.742 44.0181 10.4192 44.0181C10.0964 44.0181 9.77671 43.9545 9.47846 43.8309C9.18021 43.7074 8.90921 43.5263 8.68094 43.2981C8.45267 43.0698 8.2716 42.7988 8.14806 42.5006C8.02452 42.2023 7.96094 41.8826 7.96094 41.5598C7.96094 40.9078 8.21993 40.2826 8.68094 39.8216C9.14196 39.3606 9.76722 39.1016 10.4192 39.1016C11.0712 39.1016 11.6964 39.3606 12.1574 39.8216C12.6185 40.2826 12.8774 40.9078 12.8774 41.5598Z" stroke="#1A4983" stroke-width="0.497504" stroke-linecap="round" stroke-linejoin="round"/>
<defs>
<filter id="filter0_d_729_6997" x="0.952821" y="35.3612" width="67.6412" height="19.5255" filterUnits="userSpaceOnUse" color-interpolation-filters="sRGB">
<feFlood flood-opacity="0" result="BackgroundImageFix"/>
<feColorMatrix in="SourceAlpha" type="matrix" values="0 0 0 0 0 0 0 0 0 0 0 0 0 0 0 0 0 0 127 0" result="hardAlpha"/>
<feOffset dy="2.78937"/>
<feGaussianBlur stdDeviation="1.39468"/>
<feColorMatrix type="matrix" values="0 0 0 0 0 0 0 0 0 0 0 0 0 0 0 0 0 0 0.08 0"/>
<feBlend mode="normal" in2="BackgroundImageFix" result="effect1_dropShadow_729_6997"/>
<feBlend mode="normal" in="SourceGraphic" in2="effect1_dropShadow_729_6997" result="shape"/>
</filter>
</defs>
</svg>
