<svg width="24" height="24" viewBox="0 0 24 24" fill="none" xmlns="http://www.w3.org/2000/svg">
<path d="M14.5 12C14.5 12.663 14.2366 13.2989 13.7678 13.7678C13.2989 14.2366 12.663 14.5 12 14.5C11.337 14.5 10.7011 14.2366 10.2322 13.7678C9.76339 13.2989 9.5 12.663 9.5 12C9.5 11.3369 9.76339 10.7011 10.2322 10.2322C10.7011 9.76338 11.337 9.49999 12 9.49999C12.663 9.49999 13.2989 9.76338 13.7678 10.2322C14.2366 10.7011 14.5 11.3369 14.5 12ZM13.5 12C13.4999 11.602 13.3417 11.2204 13.0602 10.9391C12.7787 10.6578 12.397 10.4999 11.999 10.5C11.601 10.5001 11.2194 10.6583 10.9381 10.9398C10.6568 11.2213 10.4989 11.603 10.499 12.001C10.4991 12.3989 10.6573 12.7806 10.9388 13.0619C11.2203 13.3432 11.602 13.5011 12 13.501C12.398 13.5009 12.7796 13.3426 13.0609 13.0611C13.3422 12.7797 13.5001 12.3979 13.5 12ZM14.5 4.56299C14.5 5.22603 14.2366 5.86191 13.7678 6.33076C13.2989 6.7996 12.663 7.06299 12 7.06299C11.337 7.06299 10.7011 6.7996 10.2322 6.33076C9.76339 5.86191 9.5 5.22603 9.5 4.56299C9.5 3.89995 9.76339 3.26406 10.2322 2.79522C10.7011 2.32638 11.337 2.06299 12 2.06299C12.663 2.06299 13.2989 2.32638 13.7678 2.79522C14.2366 3.26406 14.5 3.89995 14.5 4.56299ZM13.5 4.56299C13.4999 4.16503 13.3417 3.78343 13.0602 3.50212C12.7787 3.22082 12.397 3.06286 11.999 3.06299C11.601 3.06312 11.2194 3.22134 10.9381 3.50283C10.6568 3.78432 10.4989 4.16603 10.499 4.56399C10.4991 4.96195 10.6573 5.34355 10.9388 5.62486C11.2203 5.90616 11.602 6.06412 12 6.06399C12.398 6.06386 12.7796 5.90564 13.0609 5.62415C13.3422 5.34266 13.5001 4.96095 13.5 4.56299ZM14.5 19.437C14.5 20.1 14.2366 20.7359 13.7678 21.2048C13.2989 21.6736 12.663 21.937 12 21.937C11.337 21.937 10.7011 21.6736 10.2322 21.2048C9.76339 20.7359 9.5 20.1 9.5 19.437C9.5 18.7739 9.76339 18.1381 10.2322 17.6692C10.7011 17.2004 11.337 16.937 12 16.937C12.663 16.937 13.2989 17.2004 13.7678 17.6692C14.2366 18.1381 14.5 18.7739 14.5 19.437ZM13.5 19.437C13.4999 19.039 13.3417 18.6574 13.0602 18.3761C12.7787 18.0948 12.397 17.9369 11.999 17.937C11.601 17.9371 11.2194 18.0953 10.9381 18.3768C10.6568 18.6583 10.4989 19.04 10.499 19.438C10.4991 19.8359 10.6573 20.2176 10.9388 20.4989C11.2203 20.7802 11.602 20.9381 12 20.938C12.398 20.9379 12.7796 20.7796 13.0609 20.4981C13.3422 20.2167 13.5001 19.8349 13.5 19.437Z" fill="black"/>
</svg>
