<svg width="24" height="24" viewBox="0 0 24 24" fill="none" xmlns="http://www.w3.org/2000/svg">
<circle cx="12" cy="12" r="12" fill="#53B3DB"/>
<g clip-path="url(#clip0_655_1322)">
<path d="M9.30002 15.1499V11.0999C9.30002 10.3838 9.58449 9.69706 10.0908 9.19071C10.5972 8.68437 11.2839 8.3999 12 8.3999C12.7161 8.3999 13.4029 8.68437 13.9092 9.19071C14.4156 9.69706 14.7 10.3838 14.7 11.0999V15.1499M9.30002 15.1499H14.7H9.30002ZM9.30002 15.1499H8.40002H9.30002ZM14.7 15.1499H15.6H14.7ZM11.55 16.4999H12.45H11.55Z" fill="white"/>
<path d="M9.30002 15.1499V11.0999C9.30002 10.3838 9.58449 9.69706 10.0908 9.19071C10.5972 8.68437 11.2839 8.3999 12 8.3999C12.7161 8.3999 13.4029 8.68437 13.9092 9.19071C14.4156 9.69706 14.7 10.3838 14.7 11.0999V15.1499M9.30002 15.1499H14.7M9.30002 15.1499H8.40002M14.7 15.1499H15.6M11.55 16.4999H12.45" stroke="white" stroke-width="1.5" stroke-linecap="round" stroke-linejoin="round"/>
<path d="M12 8.4C12.2486 8.4 12.45 8.19853 12.45 7.95C12.45 7.70147 12.2486 7.5 12 7.5C11.7515 7.5 11.55 7.70147 11.55 7.95C11.55 8.19853 11.7515 8.4 12 8.4Z" stroke="white" stroke-width="1.5"/>
</g>
<circle cx="20.7" cy="3.9002" r="2.7" fill="#E74D4D"/>
<defs>
<clipPath id="clip0_655_1322">
<rect width="10.8" height="10.8" fill="white" transform="translate(6.59998 6.6001)"/>
</clipPath>
</defs>
</svg>
