<svg width="409" height="93" viewBox="0 0 409 93" fill="none" xmlns="http://www.w3.org/2000/svg">
<path d="M407.5 -40.7109C407.5 -29.9995 400.933 -16.3629 389.065 -1.79505C377.245 12.7145 360.344 27.9293 340.092 41.7691C299.57 69.4603 245.848 91.5 192.953 91.5C140.083 91.5 92.1643 69.4799 57.449 41.8342C40.0952 28.0145 26.0779 12.8177 16.4112 -1.67982C6.72 -16.214 1.5 -29.8955 1.5 -40.7109C1.5 -51.374 6.5817 -59.8443 16.038 -66.6334C25.555 -73.4661 39.4478 -78.5427 56.8276 -82.2515C91.5726 -89.6659 139.666 -91.5 192.953 -91.5C246.23 -91.5 300.122 -89.6676 340.668 -82.243C360.954 -78.5283 377.765 -73.4359 389.468 -66.5587C401.151 -59.6937 407.5 -51.2144 407.5 -40.7109Z" stroke="#077920" stroke-opacity="0.99" stroke-width="3"/>
</svg>
