<svg width="149" height="85" viewBox="0 0 149 85" fill="none" xmlns="http://www.w3.org/2000/svg">
<path d="M-65.209 44.4567C-63.7678 39.0781 -58.5739 32.9724 -50.3455 27.0308C-42.1781 21.1333 -31.2469 15.5612 -18.7393 11.1696C6.29539 2.37944 37.3957 -1.59673 64.9439 5.7848C92.4671 13.1596 114.364 31.3162 128.604 50.5827C135.721 60.2119 140.896 70.0811 143.901 78.9597C146.919 87.88 147.689 95.6303 146.221 101.109C144.793 106.441 141.13 110.019 135.384 112.188C129.567 114.383 121.685 115.096 112.093 114.601C92.9255 113.612 67.5295 107.839 39.6034 100.357C11.6868 92.8763 -16.2441 84.362 -36.3874 74.8072C-46.471 70.0242 -54.4801 65.0362 -59.5632 59.8745C-64.6292 54.73 -66.5964 49.6345 -65.209 44.4567Z" stroke="#077920" stroke-opacity="0.99" stroke-width="3"/>
</svg>
